<svg width="178" height="26" viewBox="0 0 178 26" fill="none" xmlns="http://www.w3.org/2000/svg">
<path d="M13.408 25C17.98 25 20.392 22.12 20.392 18.52C20.392 15.496 18.34 13.012 15.784 12.616C18.052 12.148 19.924 10.132 19.924 7.10799C19.924 3.90399 17.584 0.98799 13.012 0.98799H0.375999V25H13.408ZM11.896 10.6H5.488V5.37999H11.896C13.624 5.37999 14.704 6.49599 14.704 8.00799C14.704 9.51999 13.624 10.6 11.896 10.6ZM12.076 20.572H5.488V14.992H12.076C14.092 14.992 15.172 16.288 15.172 17.8C15.172 19.528 14.02 20.572 12.076 20.572Z" fill="black"/>
<path d="M32.2031 25.432C37.9631 25.432 41.4191 21.256 41.4191 16.288C41.4191 11.356 37.9631 7.17999 32.2031 7.17999C26.4791 7.17999 23.0231 11.356 23.0231 16.288C23.0231 21.256 26.4791 25.432 32.2031 25.432ZM32.2031 21.364C29.3591 21.364 27.7751 19.024 27.7751 16.288C27.7751 13.588 29.3591 11.248 32.2031 11.248C35.0471 11.248 36.6671 13.588 36.6671 16.288C36.6671 19.024 35.0471 21.364 32.2031 21.364Z" fill="black"/>
<path d="M52.875 25.432C58.635 25.432 62.091 21.256 62.091 16.288C62.091 11.356 58.635 7.17999 52.875 7.17999C47.151 7.17999 43.695 11.356 43.695 16.288C43.695 21.256 47.151 25.432 52.875 25.432ZM52.875 21.364C50.031 21.364 48.447 19.024 48.447 16.288C48.447 13.588 50.031 11.248 52.875 11.248C55.719 11.248 57.339 13.588 57.339 16.288C57.339 19.024 55.719 21.364 52.875 21.364Z" fill="black"/>
<path d="M82.4748 25L75.3828 15.496L82.2588 7.61199H76.6428L70.0548 15.352V0.98799H65.4828V25H70.0548V20.536L72.1428 18.304L76.7508 25H82.4748Z" fill="black"/>
<path d="M102.599 25.432C109.079 25.432 112.211 22.12 112.211 17.728C112.211 8.76399 98.4234 11.32 98.4234 7.50399C98.4234 6.06399 99.6474 5.09199 101.843 5.09199C104.291 5.09199 106.883 5.91999 108.827 7.71999L111.671 3.97599C109.295 1.77999 106.127 0.627991 102.311 0.627991C96.6594 0.627991 93.2034 3.93999 93.2034 7.93599C93.2034 16.972 107.027 14.056 107.027 18.304C107.027 19.672 105.659 20.968 102.851 20.968C99.5394 20.968 96.9114 19.492 95.2194 17.728L92.4474 21.616C94.6794 23.884 97.9914 25.432 102.599 25.432Z" fill="black"/>
<path d="M120.885 25.432C122.793 25.432 124.017 24.928 124.701 24.316L123.729 20.86C123.477 21.112 122.829 21.364 122.145 21.364C121.137 21.364 120.561 20.536 120.561 19.456V11.608H124.089V7.61199H120.561V2.85999H115.953V7.61199H113.073V11.608H115.953V20.68C115.953 23.776 117.681 25.432 120.885 25.432Z" fill="black"/>
<path d="M135.281 25.432C141.041 25.432 144.497 21.256 144.497 16.288C144.497 11.356 141.041 7.17999 135.281 7.17999C129.557 7.17999 126.101 11.356 126.101 16.288C126.101 21.256 129.557 25.432 135.281 25.432ZM135.281 21.364C132.437 21.364 130.853 19.024 130.853 16.288C130.853 13.588 132.437 11.248 135.281 11.248C138.125 11.248 139.745 13.588 139.745 16.288C139.745 19.024 138.125 21.364 135.281 21.364Z" fill="black"/>
<path d="M152.461 25V13.516C153.217 12.4 155.233 11.536 156.745 11.536C157.249 11.536 157.681 11.572 158.005 11.644V7.17999C155.845 7.17999 153.685 8.43999 152.461 9.98799V7.61199H147.889V25H152.461Z" fill="black"/>
<path d="M169.034 25.432C171.734 25.432 174.47 24.604 176.198 23.02L174.182 20.068C173.066 21.148 171.014 21.796 169.538 21.796C166.586 21.796 164.822 19.96 164.534 17.764H177.458V16.756C177.458 11.068 173.93 7.17999 168.746 7.17999C163.454 7.17999 159.746 11.248 159.746 16.288C159.746 21.868 163.742 25.432 169.034 25.432ZM173.03 14.668H164.462C164.678 12.94 165.902 10.816 168.746 10.816C171.77 10.816 172.922 13.012 173.03 14.668Z" fill="black"/>
<path d="M13.408 25C17.98 25 20.392 22.12 20.392 18.52C20.392 15.496 18.34 13.012 15.784 12.616C18.052 12.148 19.924 10.132 19.924 7.10799C19.924 3.90399 17.584 0.98799 13.012 0.98799H0.375999V25H13.408ZM11.896 10.6H5.488V5.37999H11.896C13.624 5.37999 14.704 6.49599 14.704 8.00799C14.704 9.51999 13.624 10.6 11.896 10.6ZM12.076 20.572H5.488V14.992H12.076C14.092 14.992 15.172 16.288 15.172 17.8C15.172 19.528 14.02 20.572 12.076 20.572Z" fill="black"/>
<path d="M32.2031 25.432C37.9631 25.432 41.4191 21.256 41.4191 16.288C41.4191 11.356 37.9631 7.17999 32.2031 7.17999C26.4791 7.17999 23.0231 11.356 23.0231 16.288C23.0231 21.256 26.4791 25.432 32.2031 25.432ZM32.2031 21.364C29.3591 21.364 27.7751 19.024 27.7751 16.288C27.7751 13.588 29.3591 11.248 32.2031 11.248C35.0471 11.248 36.6671 13.588 36.6671 16.288C36.6671 19.024 35.0471 21.364 32.2031 21.364Z" fill="black"/>
<path d="M52.875 25.432C58.635 25.432 62.091 21.256 62.091 16.288C62.091 11.356 58.635 7.17999 52.875 7.17999C47.151 7.17999 43.695 11.356 43.695 16.288C43.695 21.256 47.151 25.432 52.875 25.432ZM52.875 21.364C50.031 21.364 48.447 19.024 48.447 16.288C48.447 13.588 50.031 11.248 52.875 11.248C55.719 11.248 57.339 13.588 57.339 16.288C57.339 19.024 55.719 21.364 52.875 21.364Z" fill="black"/>
<path d="M82.4748 25L75.3828 15.496L82.2588 7.61199H76.6428L70.0548 15.352V0.98799H65.4828V25H70.0548V20.536L72.1428 18.304L76.7508 25H82.4748Z" fill="black"/>
<path d="M102.599 25.432C109.079 25.432 112.211 22.12 112.211 17.728C112.211 8.76399 98.4234 11.32 98.4234 7.50399C98.4234 6.06399 99.6474 5.09199 101.843 5.09199C104.291 5.09199 106.883 5.91999 108.827 7.71999L111.671 3.97599C109.295 1.77999 106.127 0.627991 102.311 0.627991C96.6594 0.627991 93.2034 3.93999 93.2034 7.93599C93.2034 16.972 107.027 14.056 107.027 18.304C107.027 19.672 105.659 20.968 102.851 20.968C99.5394 20.968 96.9114 19.492 95.2194 17.728L92.4474 21.616C94.6794 23.884 97.9914 25.432 102.599 25.432Z" fill="black"/>
<path d="M120.885 25.432C122.793 25.432 124.017 24.928 124.701 24.316L123.729 20.86C123.477 21.112 122.829 21.364 122.145 21.364C121.137 21.364 120.561 20.536 120.561 19.456V11.608H124.089V7.61199H120.561V2.85999H115.953V7.61199H113.073V11.608H115.953V20.68C115.953 23.776 117.681 25.432 120.885 25.432Z" fill="black"/>
<path d="M135.281 25.432C141.041 25.432 144.497 21.256 144.497 16.288C144.497 11.356 141.041 7.17999 135.281 7.17999C129.557 7.17999 126.101 11.356 126.101 16.288C126.101 21.256 129.557 25.432 135.281 25.432ZM135.281 21.364C132.437 21.364 130.853 19.024 130.853 16.288C130.853 13.588 132.437 11.248 135.281 11.248C138.125 11.248 139.745 13.588 139.745 16.288C139.745 19.024 138.125 21.364 135.281 21.364Z" fill="black"/>
<path d="M152.461 25V13.516C153.217 12.4 155.233 11.536 156.745 11.536C157.249 11.536 157.681 11.572 158.005 11.644V7.17999C155.845 7.17999 153.685 8.43999 152.461 9.98799V7.61199H147.889V25H152.461Z" fill="black"/>
<path d="M169.034 25.432C171.734 25.432 174.47 24.604 176.198 23.02L174.182 20.068C173.066 21.148 171.014 21.796 169.538 21.796C166.586 21.796 164.822 19.96 164.534 17.764H177.458V16.756C177.458 11.068 173.93 7.17999 168.746 7.17999C163.454 7.17999 159.746 11.248 159.746 16.288C159.746 21.868 163.742 25.432 169.034 25.432ZM173.03 14.668H164.462C164.678 12.94 165.902 10.816 168.746 10.816C171.77 10.816 172.922 13.012 173.03 14.668Z" fill="black"/>
<path d="M36 18.5C36 19.8807 34.8807 21 33.5 21C32.1193 21 31 19.8807 31 18.5C31 17.1193 32.1193 16 33.5 16C34.8807 16 36 17.1193 36 18.5Z" fill="black"/>
<path d="M57 18.5C57 19.8807 55.8807 21 54.5 21C53.1193 21 52 19.8807 52 18.5C52 17.1193 53.1193 16 54.5 16C55.8807 16 57 17.1193 57 18.5Z" fill="black"/>
</svg>
